name analog
datacolumns 19
datarows 16
range 0.1455 0.153
endheader
time	ground_force_vx	ground_force_vy	ground_force_vz	ground_force_px	ground_force_py	ground_force_pz	l_ground_force_vx	l_ground_force_vy	l_ground_force_vz	l_ground_force_px	l_ground_force_py	l_ground_force_pz	ground_torque_x	ground_torque_y	ground_torque_z	l_ground_torque_x	l_ground_torque_y	l_ground_torque_z
0.1455	-0.0	-0.0	-0.0	10.602383613586426	26.01583671569824	-254.54656982421875	-19.63600730895996	-55.14352035522461	-377.6628112792969	-35.484596252441406	16.104564666748047	75.52100372314453	-0.0	-0.0	-0.0	64477.8046875	-25907.853515625	-4512.986328125
0.146	-0.0	-0.0	-0.0	8.10464096069336	24.853878021240234	-282.7044677734375	-22.20828056335449	-56.16582489013672	-406.62646484375	-34.99163055419922	16.540969848632812	75.8449935913086	-0.0	-0.0	-0.0	69500.859375	-27832.478515625	-5173.302734375
0.1465	-0.0	-0.0	-0.0	7.034266948699951	22.98896789550781	-311.71630859375	-21.631990432739254	-55.98591232299805	-433.5352478027344	-34.825775146484375	16.554412841796875	75.75382232666016	-0.0	-0.0	-0.0	73952.953125	-29368.759765625	-5499.025390625
0.147	-0.0	-0.0	-0.0	6.340610504150391	22.361743927001957	-341.0561218261719	-17.711992263793945	-54.94609832763672	-458.9171447753906	-35.42225646972656	15.841282844543455	76.83267211914062	-0.0	-0.0	-0.0	78405.046875	-31233.130859375	-5635.2978515625
0.1475	-0.0	-0.0	-0.0	7.153311252593994	24.827617645263672	-366.7702941894531	-12.741214752197266	-55.11933135986328	-481.998779296875	-35.4157829284668	16.45789337158203	76.83296966552734	-0.0	-0.0	-0.0	82521.140625	-33229.765625	-5304.369140625
0.148	-0.0	-0.0	-0.0	9.667295455932615	30.44226455688477	-386.494873046875	-7.609471321105957	-56.45060729980469	-507.0841979980469	-35.32966232299805	16.290977478027344	75.09113311767578	-0.0	-0.0	-0.0	86370.2265625	-34456.25390625	-5085.72802734375
0.1485	-0.0	-0.0	-0.0	13.245161056518556	38.28214263916016	-408.0251770019531	-4.422533988952637	-58.59612655639648	-529.7781372070312	-35.32332229614258	16.27486801147461	75.83071899414062	-0.0	-0.0	-0.0	90646.859375	-35956.8671875	-4728.087890625
0.149	-0.0	-0.0	-0.0	18.769332885742188	45.95958709716797	-425.4056091308594	-2.36948299407959	-62.71159744262695	-551.7986450195312	-35.431861877441406	16.377647399902344	75.11614227294922	-0.0	-0.0	-0.0	94205.0703125	-37526.703125	-4558.36083984375
0.1495	-0.0	-0.0	-0.0	22.88837432861328	52.19803237915039	-444.4252624511719	0.1109409555792808	-65.9984359741211	-573.0952758789062	-35.32362747192383	16.6318416595459	75.8056640625	-0.0	-0.0	-0.0	97881.5859375	-38886.0234375	-4319.03271484375
0.15	-0.0	-0.0	-0.0	25.708215713500977	56.711856842041016	-462.65338134765625	2.6707394123077397	-68.30078125	-589.5408935546875	-35.32685852050781	15.843948364257812	76.507568359375	-0.0	-0.0	-0.0	100087.96875	-39328.15625	-4287.07080078125
0.1505	-0.0	-0.0	-0.0	26.563047409057617	59.3794174194336	-469.76611328125	3.490906953811645	-69.68580627441406	-602.7094116210938	-35.598350524902344	16.36524200439453	75.49072265625	-0.0	-0.0	-0.0	102324.4140625	-39730.45703125	-4174.4404296875
0.151	-0.0	-0.0	-0.0	23.542394638061523	60.974365234375	-477.4386901855469	5.512392044067383	-69.16508483886719	-612.8217163085938	-35.17530822753906	16.272348403930664	76.12105560302734	-0.0	-0.0	-0.0	103559.34375	-39738.55859375	-4348.71826171875
0.1515	-0.0	-0.0	-0.0	20.68777275085449	61.75227737426758	-479.70208740234375	5.668361186981201	-68.97317504882812	-621.8509521484375	-35.32416534423828	16.455442428588867	76.16831970214844	-0.0	-0.0	-0.0	105134.9296875	-39617.26171875	-4826.185546875
0.152	-0.0	-0.0	-0.0	19.14122772216797	62.4774169921875	-491.0270690917969	4.937565803527832	-68.96719360351562	-629.8814086914062	-35.58964920043945	16.10158348083496	76.11009979248047	-0.0	-0.0	-0.0	106462.8671875	-39304.5625	-5533.53955078125
0.1525	-0.0	-0.0	-0.0	18.55282211303711	63.11024856567383	-504.3526916503906	2.566640615463257	-69.07054138183594	-634.8399658203125	-35.67052459716797	16.290390014648438	76.16809844970703	-0.0	-0.0	-0.0	107198.21875	-38965.03515625	-6280.822265625
0.153	-0.0	-0.0	-0.0	19.62338638305664	63.92989349365234	-516.7485961914062	0.2543393075466156	-68.6907958984375	-640.6932373046875	-35.33609771728516	16.281599044799805	74.11888122558594	-0.0	-0.0	-0.0	107841.4765625	-38728.8203125	-6993.24560546875
